<svg width="51" height="50" viewBox="0 0 51 50" fill="none" xmlns="http://www.w3.org/2000/svg">
<path d="M50.9451 7.42518C50.9059 7.45121 50.8701 7.48217 50.8387 7.51732C50.6088 7.84448 50.3071 7.96333 49.9296 7.82311C49.5521 7.6829 49.4498 7.39313 49.4511 7.0219C49.4511 6.05377 49.4431 5.08563 49.4511 4.1175C49.466 3.98636 49.4366 3.85399 49.3677 3.74163C49.2988 3.62927 49.1943 3.54344 49.0709 3.4979C45.7773 1.91958 42.1234 1.25519 38.4881 1.57364C34.4859 1.8968 30.8453 3.25085 27.5144 5.48758C27.1835 5.70925 27.0758 5.95095 27.0758 6.34221C27.0864 18.6586 27.0891 30.9746 27.0838 43.2902V43.8924C27.2619 43.8016 27.3788 43.7589 27.4825 43.6868C29.2602 42.553 31.1829 41.6672 33.198 41.0535C33.5542 40.948 33.6592 40.7864 33.6459 40.4245C33.6193 39.7248 33.6286 39.0224 33.6459 38.3227C33.6672 37.1983 34.3969 36.4051 35.5067 36.3944C38.1651 36.369 40.8115 36.3811 43.4645 36.3944C44.0254 36.3944 44.4561 36.6508 44.6674 37.1956C44.8787 37.7405 44.7139 38.1785 44.3324 38.5644C43.8539 39.0464 43.3675 39.5232 42.8132 40.0747C43.5456 40.2082 44.1955 40.2816 44.8176 40.4566C46.1042 40.8211 47.3842 41.2217 48.6536 41.6464C49.3275 41.8721 49.4444 41.824 49.4444 41.1122V11.1174C49.4444 10.9505 49.3953 10.7596 49.4591 10.622C49.5707 10.3817 49.7116 10.0545 49.915 9.98372C50.1423 9.90627 50.4573 10.0625 50.7271 10.14C50.8082 10.1627 50.868 10.2641 50.9371 10.3296V41.8774C50.2433 43.2995 49.475 43.5653 48.005 43.0004C47.0174 42.6212 45.9992 42.3207 44.9851 42.0163C44.5611 41.8894 44.1145 41.844 43.6772 41.7599C44.5385 42.7761 45.4463 43.6761 46.3355 44.5882C47.04 45.3079 47.0426 46.1692 46.3422 46.8903C45.6124 47.6421 44.8708 48.3833 44.1278 49.1217C43.3475 49.9002 42.5075 49.9029 41.7352 49.1297C40.617 48.0125 39.5044 46.8903 38.3977 45.7633C38.2061 45.539 38.0286 45.3031 37.866 45.0569C37.1217 45.8167 36.4903 46.455 35.8656 47.0986C35.4589 47.5166 34.995 47.7129 34.4301 47.4806C33.8652 47.2482 33.6446 46.7595 33.6472 46.1572C33.6472 45.2385 33.6472 44.3211 33.6472 43.4024V42.4289C32.7062 42.8068 31.8675 43.1553 31.0181 43.4785C30.7177 43.5933 30.6433 43.7763 30.6473 44.0834C30.6646 45.2011 30.6566 46.3201 30.6539 47.4378C30.6539 48.896 29.8564 49.6959 28.4103 49.6959H2.24818C0.808683 49.6959 0.00586181 48.8853 0.00453263 47.4338C0.00453263 44.464 0.00453263 41.4933 0.00453263 38.5216C-0.00402094 38.3881 -0.000463604 38.254 0.0151642 38.121C0.0922563 37.7084 0.338156 37.4627 0.76615 37.468C1.1649 37.468 1.40415 37.7164 1.48257 38.1037C1.50168 38.2524 1.50613 38.4027 1.49586 38.5523C1.49586 41.4394 1.49586 44.3269 1.49586 47.2148C1.49586 48.1229 1.56365 48.1936 2.44489 48.1936H28.5605C28.9725 48.1936 29.1639 47.9813 29.1639 47.5727C29.1639 46.6553 29.1639 45.7366 29.1639 44.8192C29.1562 44.685 29.1416 44.5513 29.1201 44.4186C28.3651 44.9193 27.6859 45.392 26.9814 45.8234C26.736 45.9829 26.4532 46.075 26.1613 46.0904C19.1477 46.1056 12.1341 46.1087 5.12052 46.0998C4.10902 46.0998 3.57868 45.5656 3.57868 44.5641C3.57868 31.7794 3.57868 18.9952 3.57868 6.21134C3.57868 5.20448 4.11035 4.66099 5.10723 4.64363C6.10411 4.62627 7.10099 4.63695 8.09122 4.64363C8.40732 4.63885 8.72064 4.70355 9.00924 4.83318C9.29784 4.96282 9.55476 5.15425 9.76199 5.3941C10.3508 6.0511 10.9317 6.7161 11.555 7.33838C11.7614 7.54104 12.0317 7.66481 12.3193 7.68824C14.3255 7.71673 16.3316 7.71673 18.3378 7.68824C18.6255 7.66805 18.8973 7.54763 19.1061 7.34773C19.7082 6.75216 20.2757 6.11786 20.834 5.47823C21.0624 5.20179 21.3514 4.98231 21.6784 4.83704C22.0055 4.69176 22.3616 4.62465 22.7188 4.64096C23.3488 4.65165 23.9828 4.59422 24.6075 4.65431C25.09 4.71441 25.5796 4.6743 26.0461 4.53648C26.5125 4.39865 26.9458 4.16606 27.319 3.8531C27.8374 3.4338 28.4595 3.14536 29.0337 2.79817L29.0204 2.66463C28.7597 2.61821 28.4965 2.58744 28.2322 2.57249C19.6431 2.57249 11.0544 2.57249 2.46616 2.57249C1.57561 2.57249 1.50251 2.64727 1.50251 3.54196V34.2872C1.50251 35.0884 1.25395 35.465 0.739565 35.453C0.225175 35.441 0.00985046 35.0778 0.00985046 34.3073V3.76497C0.00985046 3.51392 0.00187542 3.26288 0.00985046 3.01316C0.0287793 2.52554 0.224242 2.06164 0.559534 1.70856C0.894826 1.35548 1.34688 1.13751 1.83081 1.09558C2.07804 1.07155 2.32793 1.07289 2.57648 1.07289C11.0318 1.07289 19.4876 1.06977 27.9437 1.06354C28.9486 1.06354 29.8737 1.14901 30.424 2.14518C32.6357 1.14828 34.9824 0.486741 37.3875 0.182205C41.5034 -0.348918 45.6851 0.286594 49.4604 2.01698C50.1649 2.33613 50.6965 2.77146 50.9451 3.51926V7.42518ZM25.5579 44.5842V6.14858C24.5982 6.14858 23.6718 6.11787 22.7493 6.16594C22.4314 6.19767 22.133 6.33486 21.9013 6.55586C21.2833 7.15944 20.713 7.81243 20.1362 8.45741C19.9231 8.70291 19.6583 8.89782 19.3611 9.02807C19.0639 9.15831 18.7417 9.22063 18.4176 9.21055C16.3618 9.21055 14.306 9.21055 12.2502 9.21055C11.9253 9.22246 11.6017 9.1618 11.3029 9.03296C11.0041 8.90411 10.7375 8.71027 10.5223 8.46542C9.93345 7.80976 9.33931 7.15678 8.73188 6.51848C8.58966 6.36892 8.39028 6.18063 8.21217 6.17529C7.17409 6.1419 6.13468 6.15926 5.09792 6.15926V44.5842H25.5579ZM35.1359 45.5723C35.225 45.5576 35.2688 45.5643 35.2848 45.5456C35.7805 45.0542 36.2737 44.5588 36.7668 44.0647C37.5284 43.2982 38.0587 43.2995 38.831 44.0767C40.1894 45.4455 41.5465 46.8155 42.8797 48.1602L45.3758 45.6484C45.2366 45.5488 45.1035 45.4409 44.9771 45.3253C43.6958 44.0433 42.4175 42.7578 41.1424 41.4688C40.5536 40.8719 40.551 40.267 41.1291 39.6781C41.6037 39.188 42.0915 38.7113 42.5686 38.2239C42.6601 38.1173 42.7458 38.0059 42.8252 37.89C40.3861 37.89 38.0401 37.89 35.6795 37.89C35.3087 37.89 35.1359 38.0503 35.1372 38.4322C35.1439 40.7998 35.1412 43.1687 35.1412 45.5723H35.1359Z" fill="#EDF0FB"/>
<path d="M40.204 20.6882C37.1447 20.734 34.1252 21.3927 31.3225 22.6258C31.1896 22.6859 31.0566 22.7486 30.9131 22.806C30.3947 23.0237 29.9441 22.8928 29.7766 22.4775C29.6092 22.0622 29.7899 21.6523 30.3389 21.4279C31.2573 21.05 32.1718 20.6521 33.1155 20.3517C37.321 19.0163 41.5704 18.8534 45.8557 19.951C45.9886 19.9844 46.1135 20.0138 46.2385 20.0552C46.6917 20.2088 46.9137 20.5653 46.81 20.9672C46.6997 21.3972 46.3209 21.6069 45.8424 21.5014C44.8694 21.3011 43.9031 21.0634 42.9182 20.9178C42.025 20.795 41.1092 20.7643 40.204 20.6882Z" fill="#EDF0FB"/>
<path d="M46.8392 15.2653C46.8286 15.7567 46.3939 16.0665 45.8529 15.9584C44.7324 15.746 43.6186 15.4656 42.4888 15.3334C38.6528 14.8834 34.9683 15.515 31.4248 17.0333C31.2267 17.1188 31.034 17.2163 30.8333 17.2937C30.3641 17.4753 29.9388 17.3284 29.7793 16.9385C29.6198 16.5486 29.7713 16.1106 30.2418 15.929C31.5218 15.4362 32.7925 14.8941 34.111 14.5242C38.007 13.4198 42.1279 13.3958 46.0364 14.4548C46.4697 14.5696 46.8113 14.7539 46.8392 15.2653Z" fill="#EDF0FB"/>
<path d="M40.2346 8.13049C42.2103 8.1429 44.1761 8.41221 46.083 8.93171C46.6639 9.09329 46.9244 9.42445 46.8234 9.86646C46.7117 10.3445 46.3076 10.5448 45.7201 10.3872C40.6866 9.04254 35.8125 9.55398 31.0713 11.6518C30.9956 11.6852 30.9211 11.7213 30.844 11.752C30.3802 11.9323 29.9535 11.7934 29.7887 11.4088C29.7439 11.3132 29.7201 11.209 29.719 11.1033C29.7179 10.9976 29.7395 10.893 29.7822 10.7964C29.825 10.6999 29.8879 10.6137 29.9668 10.5438C30.0457 10.4739 30.1386 10.4219 30.2393 10.3913C31.6322 9.86779 33.0212 9.32296 34.4461 8.89965C36.3242 8.3348 38.2715 8.14785 40.2346 8.13049Z" fill="#EDF0FB"/>
<path d="M38.282 24.8585C38.4617 24.8575 38.6354 24.9237 38.7692 25.0441C38.9031 25.1645 38.9877 25.3306 39.0064 25.5102C39.0623 25.9522 38.7871 26.3114 38.294 26.3555C35.7188 26.6103 33.2035 27.2926 30.8506 28.3745C30.3868 28.5855 29.9614 28.4333 29.7873 28.0474C29.6132 27.6614 29.774 27.2341 30.2259 27.0218C32.7652 25.8344 35.4917 25.1023 38.282 24.8585Z" fill="#EDF0FB"/>
<path d="M15.3233 5.92181C15.2196 5.92751 15.1159 5.91171 15.0186 5.8754C14.9214 5.8391 14.8325 5.78307 14.7577 5.7108C14.6829 5.63852 14.6237 5.55155 14.5838 5.4553C14.5439 5.35905 14.5241 5.25557 14.5258 5.15131C14.5351 4.71598 14.8846 4.40885 15.3578 4.42087C15.8071 4.43289 16.1234 4.73735 16.1261 5.16199C16.1287 5.58664 15.7938 5.92448 15.3233 5.92181Z" fill="#EDF0FB"/>
<path d="M15.3433 16.7262C17.0511 16.7254 18.7207 17.2338 20.1407 18.1871C21.5606 19.1403 22.6671 20.4955 23.3198 22.081C23.9726 23.6665 24.1423 25.4109 23.8074 27.0934C23.4726 28.7758 22.6483 30.3206 21.4389 31.532C20.2296 32.7435 18.6896 33.5671 17.0139 33.8985C15.3383 34.23 13.6024 34.0544 12.0262 33.3939C10.45 32.7335 9.10435 31.6179 8.15967 30.1886C7.215 28.7592 6.71382 27.0804 6.71961 25.3646C6.72805 23.0718 7.64012 20.8756 9.25627 19.2567C10.8724 17.6378 13.061 16.7279 15.3433 16.7262ZM8.21227 25.406C8.21453 26.3498 8.40212 27.2838 8.7643 28.1545C9.12648 29.0253 9.65612 29.8157 10.3229 30.4805C10.9896 31.1453 11.7804 31.6713 12.6499 32.0286C13.5194 32.3858 14.4505 32.5671 15.3898 32.5622C19.2909 32.5422 22.4969 29.2759 22.4663 25.3513C22.4589 23.453 21.7012 21.6354 20.3599 20.2984C19.0186 18.9613 17.2035 18.2144 15.314 18.2218C13.4245 18.2292 11.6154 18.9905 10.2845 20.338C8.95369 21.6856 8.21019 23.5091 8.21759 25.4073L8.21227 25.406Z" fill="#EDF0FB"/>
<path d="M14.5696 28.7391V24.9854C14.4169 24.9631 14.2659 24.9301 14.1177 24.8866C13.9559 24.8387 13.8168 24.7333 13.7266 24.5901C13.6363 24.4469 13.601 24.2755 13.6273 24.1081C13.6309 23.9381 13.6989 23.7759 13.8174 23.6545C13.936 23.5332 14.0962 23.4618 14.2653 23.4551C14.6456 23.4224 15.028 23.4224 15.4084 23.4551C15.847 23.4885 16.0729 23.7969 16.0796 24.3471C16.0889 25.6157 16.0796 26.8843 16.0796 28.1529V28.7244C16.2285 28.7378 16.3388 28.7458 16.4491 28.7591C16.9063 28.8192 17.2054 29.145 17.1788 29.551C17.1688 29.7456 17.0828 29.9284 16.9395 30.0596C16.7961 30.1909 16.607 30.26 16.4132 30.252C15.6994 30.2681 14.987 30.2667 14.2746 30.252C13.7987 30.2427 13.4957 29.9489 13.4837 29.5283C13.4718 29.1076 13.7589 28.8112 14.232 28.7564C14.3331 28.7524 14.4314 28.7484 14.5696 28.7391Z" fill="#EDF0FB"/>
<path d="M15.3577 22.0209C14.8194 22.0316 14.4379 21.7084 14.4459 21.2504C14.4525 20.8244 14.7875 20.5333 15.2819 20.5213C15.8495 20.5079 16.2124 20.7883 16.2124 21.2504C16.2124 21.7124 15.8734 22.0115 15.3577 22.0209Z" fill="#EDF0FB"/>
</svg>
