<svg width="74" height="46" viewBox="0 0 74 46" fill="none" xmlns="http://www.w3.org/2000/svg">
<path d="M3.37973 3.68214C5.33642 4.71385 32.5166 19.5313 33.5306 20.065C34.5445 20.5986 35.5762 20.8477 37.1771 20.8477C38.7781 20.8477 39.8098 20.5986 40.8237 20.065C41.8376 19.5313 69.0178 4.71385 70.9745 3.68214C71.7038 3.30859 72.9312 2.63264 73.198 1.86775C73.6605 0.515855 73.1625 0 71.188 0H37.1771H3.16628C1.1918 0 0.69373 0.533643 1.15622 1.86775C1.42304 2.65043 2.65042 3.30859 3.37973 3.68214Z" fill="#D69922"/>
<path d="M72.5221 4.48259C71.0635 5.22969 57.9714 14.5507 49.3086 20.1539L63.9304 36.6079C64.2862 36.9637 64.4463 37.3906 64.2506 37.604C64.0372 37.7997 63.5747 37.693 63.2011 37.355L45.6621 22.5553C43.0116 24.263 41.1439 25.437 40.8237 25.6149C39.454 26.3086 38.4934 26.3975 37.1771 26.3975C35.8608 26.3975 34.9002 26.3086 33.5306 25.6149C33.1926 25.437 31.3426 24.263 28.6922 22.5553L11.1531 37.355C10.7974 37.7108 10.3171 37.8175 10.1036 37.604C9.89018 37.4084 10.0503 36.9637 10.406 36.6079L25.0101 20.1539C16.3473 14.5507 3.11292 5.22969 1.65429 4.48259C0.0889403 3.68213 0 4.6249 0 5.35421C0 6.08352 0 41.8198 0 41.8198C0 43.4741 2.43697 45.5375 4.1802 45.5375H37.1771H70.174C71.9173 45.5375 73.9985 43.4563 73.9985 41.8198C73.9985 41.8198 73.9985 6.06573 73.9985 5.35421C73.9985 4.60711 74.1052 3.68213 72.5221 4.48259Z" fill="#D69922"/>
</svg>
