<svg width="46" height="50" viewBox="0 0 46 50" fill="none" xmlns="http://www.w3.org/2000/svg">
<g clip-path="url(#clip0_0_152)">
<path d="M37.414 50C35.7775 49.2947 34.4683 48.154 33.3803 46.7734C33.29 46.6434 33.1673 46.5391 33.0243 46.4705C32.8814 46.402 32.723 46.3716 32.5646 46.3823C22.8902 46.3918 13.2172 46.394 3.54541 46.3888C1.46766 46.3888 0.102124 45.1698 0.0432081 43.0866C-0.0301091 40.5183 0.0104782 37.9462 0.0196428 35.3766C0.0196428 34.7326 0.439907 34.3428 1.02121 34.3532C1.60251 34.3637 1.98742 34.7808 1.99004 35.4692C1.9979 37.8288 1.99004 40.1872 2.00182 42.5455C1.99751 42.933 2.05768 43.3184 2.17988 43.6863C2.35794 44.1856 2.74285 44.4333 3.31499 44.432C12.6446 44.4241 21.9742 44.4241 31.3038 44.432H31.6966C31.2855 43.4894 30.8613 42.5977 30.5065 41.6799C29.9689 40.2466 29.664 38.7371 29.6031 37.2083C29.5377 35.9411 29.9671 35.0429 31.1651 34.451C32.9325 33.5788 34.6411 32.5867 36.3902 31.6755C36.7359 31.4956 36.8301 31.2922 36.8275 30.9232C36.8131 27.7514 36.8275 24.5795 36.8144 21.4064C36.8177 21.0819 36.7736 20.7587 36.6835 20.4469C36.491 19.8276 36.093 19.5669 35.4371 19.5669H3.38307C2.59753 19.5669 2.12359 19.9984 2.02147 20.8002C1.99788 21.0271 1.98869 21.2552 1.99397 21.4833C1.99397 23.1259 1.99397 24.7686 1.99397 26.4112C1.99397 27.11 1.5737 27.5584 0.983239 27.5454C0.392773 27.5324 0.0235718 27.1022 0.0209534 26.4203C0.0117887 24.6473 0.0209534 22.8743 0.0209534 21.1013C0.00967085 20.3475 0.231335 19.6084 0.65593 18.9842C1.26996 18.0924 2.10787 17.6036 3.21156 17.6036H3.98532C3.98532 16.8474 3.98532 16.1369 3.98532 15.4251C4.00103 11.8713 5.04187 8.64598 7.31863 5.90825C11.4323 0.962097 16.7451 -1.01168 23.0138 0.508414C29.2824 2.0285 33.1067 6.21332 34.535 12.4879C34.7733 13.5387 34.7589 14.6494 34.827 15.7341C34.865 16.3325 34.8348 16.9361 34.8348 17.6088C35.0207 17.6088 35.1779 17.6166 35.3337 17.6088C37.6104 17.4575 38.7887 19.417 38.7887 21.027C38.7887 24.2471 38.8097 27.4685 38.7783 30.6886C38.7783 31.2544 38.9445 31.5386 39.4486 31.7954C41.1323 32.6558 42.7649 33.6206 44.4577 34.4575C45.6059 35.0285 46.0432 35.8837 46.0013 37.1261C45.9162 39.6527 45.1778 41.9811 43.9694 44.1778C42.9298 46.0629 41.6677 47.7746 39.8846 49.0366C39.3609 49.4081 38.7652 49.6819 38.2035 50H37.414ZM28.1185 17.5762C28.1185 16.644 28.159 15.7367 28.1119 14.8385C27.8763 10.3903 24.1279 6.77911 19.6582 6.68003C14.6346 6.56922 9.77345 10.6093 10.7174 17.5814L28.1185 17.5762ZM8.68417 17.5762C8.68417 16.8631 8.66845 16.1969 8.68417 15.5333C8.6877 14.9317 8.7288 14.3308 8.80723 13.7342C9.19155 11.3539 10.369 9.1715 12.1502 7.5384C13.9313 5.90529 16.2125 4.91645 18.6265 4.73103C23.4707 4.34905 28.0595 7.43486 29.594 12.1007C29.9713 13.2968 30.1512 14.5458 30.1268 15.7993C30.1268 16.3924 30.1268 16.9856 30.1268 17.5749H32.795C33.2363 12.0095 31.5657 7.33969 26.7726 4.23433C21.9795 1.12897 16.9297 1.1055 12.1091 4.18479C7.25448 7.27842 5.57342 11.9782 5.99369 17.5762H8.68417ZM31.5958 37.2331C31.6979 39.4493 32.3473 41.3644 33.3345 43.1674C34.3216 44.9704 35.5353 46.583 37.2897 47.7381C37.6824 47.9988 37.9665 47.9767 38.337 47.7251C39.7602 46.7682 40.8429 45.5088 41.7411 44.0656C43.0935 41.8885 43.9838 39.564 44.0139 36.9632C44.0139 36.6099 43.9183 36.4065 43.5976 36.237C41.796 35.2871 40.0024 34.3224 38.2166 33.3429C38.0969 33.2644 37.9567 33.2225 37.8134 33.2225C37.67 33.2225 37.5298 33.2644 37.4101 33.3429C35.7395 34.2554 34.0676 35.1758 32.3682 36.0415C31.7712 36.3413 31.4033 36.6751 31.5958 37.2331Z" fill="#EDF0FB"/>
<path d="M9.16334 32.0314C6.71769 29.8152 6.96121 26.5416 8.78759 24.6748C9.70926 23.7326 10.9656 23.1885 12.2861 23.1595C13.6066 23.1305 14.8858 23.6189 15.8483 24.5196C17.7742 26.3148 18.1918 29.7083 15.6388 32.034C15.7946 32.1344 15.9426 32.227 16.0879 32.3221C18.2036 33.7197 19.4827 35.6217 19.5796 38.1965C19.6372 39.7388 18.565 40.8312 17.0135 40.8378C13.9281 40.8508 10.8418 40.8508 7.7546 40.8378C6.17043 40.8299 5.08114 39.6071 5.20552 38.027C5.40583 35.4862 6.68889 33.6128 8.80854 32.257L9.16334 32.0314ZM12.3932 38.8796C13.8949 38.8796 15.3966 38.8796 16.8983 38.8796C17.4508 38.8796 17.6341 38.6893 17.6105 38.1405C17.5614 37.2432 17.2602 36.3777 16.7412 35.6426C15.4555 33.734 13.1984 32.8032 11.194 33.352C9.02849 33.9465 7.29899 35.992 7.19425 38.0818C7.16283 38.7036 7.32518 38.8783 7.93659 38.8809C9.42257 38.8822 10.9086 38.8796 12.3932 38.8796ZM12.4011 25.1154C11.7947 25.1133 11.2013 25.2906 10.6962 25.6247C10.1911 25.9588 9.79699 26.4347 9.5638 26.992C9.33061 27.5494 9.26885 28.1632 9.38636 28.7556C9.50386 29.3479 9.79534 29.8922 10.2238 30.3195C10.6524 30.7467 11.1986 31.0377 11.7933 31.1554C12.3881 31.2732 13.0046 31.2125 13.5646 30.981C14.1247 30.7495 14.6031 30.3577 14.9393 29.8551C15.2754 29.3526 15.4542 28.762 15.4529 28.1582C15.4526 27.352 15.131 26.5788 14.5589 26.0084C13.9868 25.4379 13.2107 25.1168 12.4011 25.1154Z" fill="#EDF0FB"/>
<path d="M26.1389 28.0422C24.7511 28.0422 23.3633 28.0422 21.9742 28.0422C21.2476 28.0422 20.8273 27.6797 20.8247 27.0696C20.8221 26.4595 21.2411 26.0866 21.9624 26.0853C24.7721 26.0853 27.5808 26.0853 30.3887 26.0853C31.0852 26.0853 31.5382 26.4934 31.5264 27.0826C31.5146 27.6719 31.0747 28.0395 30.4005 28.0422C28.9799 28.0448 27.5594 28.0422 26.1389 28.0422Z" fill="#EDF0FB"/>
<path d="M24.8349 31.3574C25.7802 31.3574 26.7254 31.3574 27.6707 31.3574C28.3882 31.3574 28.8084 31.7316 28.8032 32.3443C28.8032 32.9362 28.3842 33.3116 27.7008 33.3129C25.7806 33.3182 23.8573 33.3182 21.931 33.3129C21.2476 33.3129 20.8326 32.9401 20.8247 32.3495C20.8155 31.7355 21.2358 31.3613 21.9506 31.3574C22.9116 31.3574 23.8739 31.3574 24.8349 31.3574Z" fill="#EDF0FB"/>
<path d="M1.98351 30.9207C1.98395 31.1836 1.8813 31.4363 1.69741 31.6251C1.51352 31.8138 1.26292 31.9235 0.998958 31.931C0.743019 31.9287 0.498048 31.8272 0.315968 31.6481C0.133888 31.469 0.0290147 31.2263 0.0235795 30.9715C0.0176128 30.8454 0.0369387 30.7194 0.0804271 30.6008C0.123915 30.4822 0.190692 30.3734 0.276864 30.2808C0.363036 30.1882 0.466876 30.1136 0.582314 30.0614C0.697752 30.0092 0.82248 29.9805 0.94921 29.9768C1.0798 29.9692 1.21059 29.9879 1.33383 30.0315C1.45707 30.0752 1.57026 30.143 1.6667 30.2311C1.76314 30.3191 1.84086 30.4254 1.89528 30.5439C1.9497 30.6623 1.9797 30.7905 1.98351 30.9207Z" fill="#EDF0FB"/>
<path d="M36.9833 40.8C37.9744 39.8782 38.9236 39.0087 39.8558 38.1209C40.1975 37.795 40.5693 37.662 41.0118 37.8263C41.1584 37.8808 41.2893 37.9704 41.393 38.0872C41.4967 38.2039 41.5699 38.3443 41.6062 38.4959C41.6426 38.6475 41.6409 38.8057 41.6014 38.9565C41.5619 39.1073 41.4858 39.2461 41.3797 39.3607C40.2171 40.5927 39.0231 41.7986 37.8264 42.9967C37.4337 43.3878 36.91 43.3878 36.4976 43.0279C35.9084 42.513 35.3336 41.985 34.7798 41.4283C34.6853 41.343 34.6091 41.2396 34.5557 41.1243C34.5023 41.0089 34.4728 40.884 34.469 40.7571C34.4652 40.6301 34.4872 40.5037 34.5336 40.3854C34.5801 40.2671 34.65 40.1593 34.7393 40.0686C35.1137 39.6631 35.6845 39.6371 36.1428 40.0256C36.4648 40.298 36.7646 40.5966 36.9833 40.8Z" fill="#EDF0FB"/>
</g>
<defs>
<clipPath id="clip0_0_152">
<rect width="46" height="50" fill="white"/>
</clipPath>
</defs>
</svg>
