<svg width="52" height="51" viewBox="0 0 52 51" fill="none" xmlns="http://www.w3.org/2000/svg">
<path d="M21.5245 19.9219C21.3672 19.9244 21.2113 19.9513 21.0623 20.0016C21.1805 20.0541 21.2841 20.1346 21.3642 20.2361C21.4443 20.3376 21.4985 20.4571 21.5221 20.5843C21.5457 20.7114 21.538 20.8424 21.4996 20.9659C21.4613 21.0894 21.3935 21.2018 21.3021 21.2932C21.2106 21.3846 21.0983 21.4525 20.9748 21.4908C20.8513 21.5291 20.7203 21.5368 20.5931 21.5132C20.466 21.4896 20.3465 21.4354 20.245 21.3553C20.1434 21.2752 20.0629 21.1716 20.0104 21.0534C19.9595 21.2023 19.9326 21.3583 19.9307 21.5156C19.9307 21.8308 20.0242 22.139 20.1993 22.4011C20.3744 22.6632 20.6234 22.8674 20.9146 22.9881C21.2058 23.1087 21.5262 23.1402 21.8354 23.0788C22.1446 23.0173 22.4285 22.8655 22.6514 22.6426C22.8743 22.4197 23.0261 22.1357 23.0876 21.8266C23.1491 21.5174 23.1175 21.1969 22.9969 20.9057C22.8763 20.6145 22.672 20.3656 22.4099 20.1905C22.1478 20.0153 21.8397 19.9219 21.5245 19.9219Z" fill="#EDF0FB"/>
<path d="M29.4932 19.9219C29.3333 19.9237 29.1747 19.9506 29.0231 20.0016C29.1617 20.0638 29.2795 20.1645 29.3628 20.2915C29.4461 20.4186 29.4914 20.5668 29.4932 20.7188C29.4932 20.9301 29.4093 21.1328 29.2598 21.2822C29.1104 21.4317 28.9077 21.5156 28.6964 21.5156C28.5453 21.5145 28.3977 21.4704 28.2707 21.3886C28.1437 21.3068 28.0426 21.1905 27.9792 21.0534C27.9282 21.2023 27.9013 21.3583 27.8995 21.5156C27.8995 21.8308 27.9929 22.139 28.1681 22.4011C28.3432 22.6632 28.5921 22.8674 28.8833 22.9881C29.1745 23.1087 29.495 23.1402 29.8042 23.0788C30.1133 23.0173 30.3973 22.8655 30.6202 22.6426C30.8431 22.4197 30.9949 22.1357 31.0564 21.8266C31.1178 21.5174 31.0863 21.1969 30.9657 20.9057C30.845 20.6145 30.6408 20.3656 30.3787 20.1905C30.1166 20.0153 29.8084 19.9219 29.4932 19.9219Z" fill="#EDF0FB"/>
<path d="M4.58289 40.6964C1.76993 41.7005 0.00883223 42.9038 0.00883223 44.625V48.6094C0.00883223 49.2434 0.260701 49.8515 0.70903 50.2998C1.15736 50.7481 1.76542 51 2.39946 51H48.6182C49.2522 51 49.8603 50.7481 50.3086 50.2998C50.757 49.8515 51.0088 49.2434 51.0088 48.6094V44.625C51.0088 42.9038 49.2637 41.7005 46.4507 40.6964C51.4312 37.4531 51.0088 30.2812 51.0088 30.2255C50.9966 30.0598 50.9329 29.9022 50.8267 29.7745C50.7204 29.6468 50.577 29.5555 50.4163 29.5134C50.2556 29.4713 50.0858 29.4804 49.9306 29.5395C49.7754 29.5985 49.6425 29.7047 49.5505 29.843C49.5505 29.843 48.1241 31.875 46.2276 31.875C42.9365 31.875 42.2432 26.2411 42.2432 21.5156C42.2432 6.83719 36.9201 0 25.5088 0C14.0976 0 8.77446 6.83719 8.77446 21.5156C8.77446 26.2411 8.08118 31.875 4.79008 31.875C2.86961 31.875 1.48305 29.8589 1.47508 29.843C1.38431 29.7014 1.25107 29.5922 1.09445 29.531C0.93783 29.4697 0.765852 29.4596 0.603132 29.5021C0.440412 29.5445 0.295292 29.6373 0.188543 29.7673C0.0817943 29.8972 0.0188894 30.0576 0.00883223 30.2255C0.00883223 30.2812 -0.413512 37.4531 4.58289 40.6964ZM1.79383 33.1819C3.38758 35.7478 5.68258 37.0547 10.3762 37.0547C11.2544 37.0953 12.1311 36.9462 12.9465 36.6175C13.762 36.2889 14.497 35.7884 15.1016 35.1502C16.2799 33.7202 16.977 31.9551 17.0938 30.1059C17.309 30.353 17.5321 30.6 17.7791 30.847C18.0262 31.0941 18.1537 31.2295 18.337 31.4287V37.2061C16.664 37.7629 14.9511 38.1918 13.213 38.4891C11.1571 38.9194 8.83821 39.4134 6.73446 40.0031C3.36368 38.6963 2.19227 35.5406 1.79383 33.1819ZM32.1149 29.7155C31.844 29.9864 31.5784 30.2733 31.318 30.5761C30.0909 31.875 28.5848 33.4688 25.5088 33.4688C22.4329 33.4688 20.9268 31.875 19.7155 30.5761C19.4446 30.2733 19.179 29.9864 18.9187 29.7155C20.2397 30.4149 21.6538 30.922 23.1182 31.2216C23.1541 31.6189 23.3377 31.9884 23.6328 32.2569C23.9279 32.5254 24.313 32.6735 24.712 32.6719H26.3057C26.7284 32.6719 27.1338 32.504 27.4327 32.2051C27.7315 31.9062 27.8995 31.5008 27.8995 31.0781C27.8995 30.6554 27.7315 30.2501 27.4327 29.9512C27.1338 29.6523 26.7284 29.4844 26.3057 29.4844H24.712C24.4023 29.4848 24.0994 29.5755 23.8404 29.7454C23.5814 29.9152 23.3776 30.1568 23.2537 30.4406C21.1747 29.9694 19.2053 29.1037 17.4524 27.8906C16.3368 26.0737 15.9463 23.8106 15.9463 19.9219V19.8342C21.0941 19.372 27.8995 16.7184 31.4137 12.4073C32.5524 13.3013 33.4733 14.4422 34.1069 15.7439C34.7405 17.0456 35.0703 18.4742 35.0713 19.9219C35.0713 25.1653 34.378 27.4523 32.1149 29.7155ZM19.9307 37.493V33.0225C21.4706 34.3743 23.4601 35.1019 25.5088 35.0625C27.5575 35.1019 29.547 34.3743 31.087 33.0225V39.0469C31.087 40.5263 30.4993 41.9451 29.4532 42.9912C28.4071 44.0373 26.9882 44.625 25.5088 44.625C24.0294 44.625 22.6106 44.0373 21.5645 42.9912C20.5184 41.9451 19.9307 40.5263 19.9307 39.0469V37.493ZM49.4151 44.6648V48.6492C49.4151 48.8606 49.3311 49.0633 49.1817 49.2127C49.0322 49.3621 48.8295 49.4461 48.6182 49.4461H2.39946C2.18811 49.4461 1.98542 49.3621 1.83598 49.2127C1.68654 49.0633 1.60258 48.8606 1.60258 48.6492V44.625C1.60258 42.5611 9.34024 40.9355 13.4999 40.0669C15.6754 39.6127 17.1656 39.27 18.1616 38.9672H18.2891V39.0469C18.2891 40.949 19.0447 42.7732 20.3897 44.1182C21.7347 45.4631 23.5589 46.2188 25.461 46.2188C27.3631 46.2188 29.1873 45.4631 30.5323 44.1182C31.8773 42.7732 32.6329 40.949 32.6329 39.0469V38.9194H32.7604C33.7565 39.2381 35.2466 39.5648 37.4221 40.0191C41.6615 40.9355 49.4151 42.5611 49.4151 44.625V44.6648ZM44.3071 40.0509C42.2034 39.4613 39.8845 38.9672 37.8285 38.5369C36.0814 38.2278 34.3604 37.7856 32.6807 37.2141V31.4287C32.864 31.2295 33.0552 31.0303 33.2385 30.847C33.4218 30.6637 33.7087 30.353 33.9159 30.1139C34.045 31.9593 34.7439 33.719 35.916 35.1502C36.5215 35.7894 37.2579 36.2905 38.0748 36.6192C38.8917 36.9479 39.7699 37.0964 40.6495 37.0547C45.3191 37.0547 47.6062 35.7638 49.1999 33.2297C48.7776 35.5805 47.5982 38.7202 44.2912 40.0111L44.3071 40.0509ZM10.3682 21.5156C10.3682 12.24 12.0974 1.59375 25.5088 1.59375C32.5532 1.59375 40.6495 3.85688 40.6495 21.5156C40.6495 29.4844 42.5221 33.4688 46.2276 33.4688C47.0195 33.4575 47.7965 33.2523 48.4907 32.8711C47.0245 35.1581 44.9207 36.2578 40.6495 36.2578C39.8826 36.2977 39.1161 36.1717 38.4024 35.8884C37.6887 35.6051 37.0444 35.1712 36.5137 34.6162C35.0474 33.0225 34.7207 30.6319 34.6649 29.1577C36.1391 26.9902 36.6651 24.3923 36.6651 19.9219C36.6652 18.0874 36.2129 16.2813 35.3484 14.6634C34.4838 13.0454 33.2336 11.6657 31.7085 10.6462C31.5363 10.531 31.3261 10.4874 31.1223 10.5246C30.9185 10.5618 30.7372 10.6769 30.6168 10.8455C27.4293 15.3319 20.2574 18.0173 15.1654 18.2962C14.9659 18.2954 14.7734 18.3695 14.6258 18.5037C14.4783 18.638 14.3865 18.8227 14.3685 19.0214C14.3685 19.3162 14.3685 19.6191 14.3685 19.9219C14.3685 24.3923 14.8865 26.9902 16.3687 29.1577C16.3129 30.608 15.9862 33.0145 14.5199 34.6162C13.9874 35.1733 13.3405 35.6084 12.6239 35.8918C11.9072 36.1752 11.1377 36.3 10.3682 36.2578C6.08899 36.2578 3.99321 35.1581 2.52696 32.8711C3.22115 33.2523 3.9982 33.4575 4.79008 33.4688C8.50352 33.4688 10.3682 29.4844 10.3682 21.5156Z" fill="#EDF0FB"/>
</svg>
